<svg xmlns="http://www.w3.org/2000/svg" xml:space="preserve" width="2048" height="2048" style="shape-rendering:geometricPrecision;text-rendering:geometricPrecision;image-rendering:optimizeQuality;fill-rule:evenodd;clip-rule:evenodd"><defs><clipPath id="id0"><path d="M1024 0c565.541 0 1024 458.459 1024 1024 0 565.541-458.459 1024-1024 1024C458.459 2048 0 1589.541 0 1024 0 458.459 458.459 0 1024 0z"/></clipPath><style>.fil1{fill:#546e7a}.fil6{fill:#0097a7;fill-rule:nonzero}</style></defs><g id="Layer_x0020_1"><path d="M1024 0c565.541 0 1024 458.459 1024 1024 0 565.541-458.459 1024-1024 1024C458.459 2048 0 1589.541 0 1024 0 458.459 458.459 0 1024 0z" style="fill:#78909c"/><g style="clip-path:url(#id0)"><g id="_308711248"><path id="_3040424961" class="fil1" d="M1357.4 535.22 2493.29 1671.1v166.32L1357.4 701.541z"/><path id="_304042328" class="fil1" d="M1500.87 713.605 2636.75 1849.49l1.91 2.54 1.66 2.73 1.4 2.89 1.11 3.03.82 3.17.51 3.27.17 3.37v55.12L1508.45 789.731v-55.125l-.18-3.368-.5-3.274-.82-3.162-1.11-3.035-1.4-2.888-1.66-2.726z"/><path id="_304042160" class="fil1" d="m1539.85 1479.71 1135.88 1135.88-.37 3.36-.66 3.27-.92 3.16-1.18 3.03-1.42 2.88-1.66 2.73-1.88 2.55-2.09 2.35-2.29 2.14-2.47 1.92-2.65 1.66-2.82 1.4-2.97 1.12-3.1.82-3.24.51-3.35.17h-965.54l-3.35-.17-3.23-.51-3.1-.82-2.95-1.12-2.81-1.4-2.64-1.66-2.46-1.91L520.699 1505.19l2.464 1.91 2.639 1.66 2.803 1.4 2.956 1.12 3.098.82 3.23.5 3.349.18h965.542l3.35-.18 3.24-.5 3.1-.82 2.97-1.12 2.81-1.4 2.65-1.67 2.48-1.91 2.29-2.14 2.09-2.35 1.88-2.55 1.66-2.73 1.42-2.89 1.18-3.03.92-3.15.66-3.27z"/><path id="_304042208" class="fil1" d="m1576.86 801.81 1135.89 1135.88 1.93 2.55 1.67 2.73 1.37 2.89 1.06 3.03.71 3.15.36 3.27-.03 3.36L1583.94 822.785l.02-3.358-.35-3.266-.72-3.157-1.05-3.031-1.37-2.887-1.67-2.728z"/><path id="_304042256" class="fil1" d="M1583.94 822.785 2719.82 1958.67l-44.09 656.92-1135.88-1135.88z"/><path id="_308711128" class="fil1" d="M1550.87 789.72c18.187-.004 34.28 14.944 33.066 33.065l-44.088 656.927c-1.215 18.122-14.904 33.065-33.066 33.065H541.238c-18.167 0-31.66-14.933-33.065-33.065l-44.088-568.751c-1.406-18.131 14.88-33.065 33.065-33.065h15.981V663.203c0-17.713 14.492-32.205 32.205-32.205h105.33V535.22h706.738v166.32h117.976c18.188 0 33.066 14.88 33.066 33.066v55.124l42.424-.01z"/></g></g><path d="M1024 0c565.541 0 1024 458.459 1024 1024 0 565.541-458.459 1024-1024 1024C458.459 2048 0 1589.541 0 1024 0 458.459 458.459 0 1024 0z" style="fill:none"/><path d="M1488.93 918.793c.104.008.409.109.517.169" style="fill:none;fill-rule:nonzero"/><path d="M545.337 630.999h418.677c35.426 0 64.41 28.984 64.41 64.41v6.133h446.955c18.187 0 33.067 14.878 33.067 33.065v496.003H993.153v-70.543H513.13V663.204c0-17.713 14.492-32.205 32.205-32.205z" style="fill:#f57c00"/><path style="fill:#80deea" d="M650.667 535.221h706.737v624.845H650.667z"/><path class="fil6" d="M743.688 613.498h520.692v35H743.688zM743.688 675.221h520.692v35H743.688zM743.688 736.943h520.692v35.001H743.688zM743.688 798.667h520.692v34.999H743.688zM743.688 860.39h520.692v35H743.688z"/><path d="M497.15 877.896h323.712l214.244-88.048 515.764-.128c18.187-.004 34.28 14.945 33.065 33.065l-44.087 656.927c-1.215 18.121-14.904 33.065-33.066 33.065H541.238c-18.167 0-31.66-14.933-33.065-33.065L464.085 910.96c-1.405-18.133 14.878-33.065 33.065-33.065z" style="fill:#ffa726"/></g></svg>